<?xml version="1.0" standalone="no"?>
<!DOCTYPE svg PUBLIC "-//W3C//DTD SVG 20010904//EN" "http://www.w3.org/TR/2001/REC-SVG-20010904/DTD/svg10.dtd">
<!-- Created using Krita: https://krita.org -->
<svg xmlns="http://www.w3.org/2000/svg" 
    xmlns:xlink="http://www.w3.org/1999/xlink"
    xmlns:krita="http://krita.org/namespaces/svg/krita"
    xmlns:sodipodi="http://sodipodi.sourceforge.net/DTD/sodipodi-0.dtd"
    width="385pt"
    height="455pt"
    viewBox="0 0 385 455">
<defs/>
<g id="group0" fill="none">
  <path id="shape0" transform="translate(55.6778606622988, 53.0629364992021)" fill="#59523e" fill-rule="evenodd" d="M2.07579 0.554305C2.07579 -2.20584 -0.866271 6.10976 0.25473 8.63201C3.61897 16.2016 -0.0125235 26.6445 3.37655 34.27C9.19942 47.3714 14.0811 121.351 38.7572 110.247C57.267 101.918 32.7692 32.1547 26.0097 19.9876C24.2925 16.8966 10.9209 3.10038 10.9209 2.31033C10.9209 -0.644751 1.18066 0.437237 1.29534 0.437237" sodipodi:nodetypes="ccccccc"/>
  <path id="shape1" transform="translate(103.880211168211, 0)" fill="#59523e" fill-rule="evenodd" stroke="none" stroke-width="1" stroke-linecap="square" stroke-linejoin="bevel" d="M17.3504 0.702409C17.3504 3.04869 13.3711 3.23022 11.6271 4.7998C2.49887 13.0152 6.9389 26.8209 1.74133 38.5154C-2.22188 47.4327 1.58243 70.1568 3.30224 78.6698C5.4057 89.082 7.72482 101.753 7.72482 111.917C7.72482 115.825 9.626 120.22 11.6271 122.922C36.6932 156.761 40.3166 0 17.6106 0" sodipodi:nodetypes="ccccccc"/>
  <path id="shape2" transform="translate(137.96490521807, 73.9871109793793)" fill="#899968" fill-rule="evenodd" d="M61.0511 0C25.9553 0 -9.91736 230.71 2.51695 278.271C8.81134 302.347 15.9649 325.738 25.6704 347.576C27.2602 351.153 32.4344 357.175 32.4344 357.175C32.4344 357.175 28.7258 348.063 28.0118 343.244C24.331 318.399 19.4268 292.754 19.4268 267.267C19.4268 205.876 23.1657 143.719 37.6374 85.1086C43.5743 61.064 59.7503 25.6609 59.7503 2.69257C59.7503 2.49387 60.0378 1.52189 60.2706 1.52189" sodipodi:nodetypes="ccccccccc"/>
  <path id="shape3" transform="translate(149.735682464303, 171.130214244504)" fill="#95a476" fill-rule="evenodd" d="M58.9059 0.25765C58.9059 -1.28442 63.1759 4.54872 63.8488 5.75986C66.7353 10.9557 65.1495 18.6247 65.1495 24.3737C65.1495 40.6778 52.0829 60.3029 44.3374 74.2448C23.719 111.358 -25.3793 221.169 16.241 258.627C17.8293 260.057 14.4171 254.759 13.3794 252.891C11.1924 248.954 11.3027 244.501 10.7778 240.013C8.71255 222.355 11.8613 201.467 18.3222 184.991C35.9952 139.925 70.3219 97.0803 81.5391 51.6506C84.9167 37.9712 80.7723 22.402 73.2142 12.1986C69.9034 7.72898 55.9147 -1.43958 60.9871 0.842991" sodipodi:nodetypes="ccccccccccc"/>
  <path id="shape4" transform="translate(237.778549350044, 88.971842316975)" fill="#8fa95f" fill-rule="evenodd" d="M102.76 1.17068C95.0212 18.5827 75.5434 32.9067 67.3793 51.2759C45.8671 99.6783 28.7097 147.384 15.0888 199.484C7.2339 229.529 0.520303 265.01 0.520303 295.948C0.520303 302.468 0 315.499 0 315.499C0 315.499 1.90708 303.327 3.38197 297.353C10.8973 266.916 20.0079 237.963 28.8768 208.03C46.3451 149.075 71.7126 91.9857 87.9312 33.5986C90.7041 23.6162 104.841 8.71502 104.841 0" sodipodi:nodetypes="ccccccccc"/>
  <path id="shape5" transform="translate(239.203289354101, 204.049896261168)" fill="#a2ba5f" fill-rule="evenodd" d="M118.245 0.468273C118.245 0.740488 110.755 4.19003 109.92 4.56566C87.6414 14.5911 66.4532 42.7623 53.2071 62.6315C42.3152 78.9694 33.8845 96.7097 24.3303 113.907C17.8746 125.528 6.37981 146.537 6.37981 160.032C6.37981 170.379 -5.58678 216.926 3.25799 183.095C9.89134 157.722 90.9593 0 120.066 0" sodipodi:nodetypes="ccccccc"/>
  <path id="shape6" transform="translate(245.322945335987, 290.366370146831)" fill="#b6cf6f" fill-rule="evenodd" d="M130.856 2.65537C84.948 2.65537 38.0714 58.8581 11.4467 90.8077C6.10849 97.2135 0 113.051 0 113.051C0 113.051 6.79324 99.7305 11.7068 94.2027C37.4354 65.258 65.6799 39.0536 99.3779 20.0985C111.617 13.2143 124.586 6.53066 136.84 1.01641C137.215 0.847588 138.661 -0.632885 138.661 0.314004" sodipodi:nodetypes="ccccccc"/>
  <path id="shape7" transform="translate(57.3902731652075, 195.269780243045)" fill="#787e26" fill-rule="evenodd" d="M33.1425 0C18.7482 0 17.5912 50.7553 18.8341 59.7048C26.955 118.175 56.1605 183.852 104.944 220.439C105.517 220.869 108.586 222.687 108.586 223.483C108.586 230.178 97.5214 215.811 91.4164 213.064C73.7895 205.132 56.9251 190.429 44.8493 175.485C31.5346 159.008 20.1664 142.949 8.68823 125.731C-7.69811 101.152 -0.889803 14.495 28.9801 1.05361" sodipodi:nodetypes="cccccccc"/>
  <path id="shape8" transform="translate(1.56090951433288, 139.896515222086)" fill="#93a16e" fill-rule="evenodd" d="M0 2.2243C25.0079 13.4778 92.353 156.948 109.004 189.416C121.245 213.288 131.85 242.151 147.766 263.638C150.923 267.899 154.53 278.037 154.53 278.037C154.53 278.037 150.743 269.815 148.547 265.862C138.303 247.424 132.839 222.773 126.174 202.528C116.042 171.755 108.411 140.621 98.0771 110.395C91.6889 91.7098 75.2799 78.0881 67.8996 59.8219C60.7539 42.1363 42.6459 21.5654 27.3159 10.0679C21.3892 5.62285 14.3573 2.17678 7.28424 0.585341C5.86484 0.265975 -0.625549 0 1.30076 0" sodipodi:nodetypes="ccccccccccc"/>
  <path id="shape9" transform="translate(26.8091860807586, 247.021272272862)" fill="#a3ac6e" fill-rule="evenodd" d="M3.62855 2.09989C-3.1657 2.09989 13.423 11.5383 17.9369 16.6163C27.3644 27.2223 39.9274 36.1186 48.3746 47.5224C73.515 81.4619 106.658 110.812 129.802 147.264C135.487 156.218 143.33 176.063 143.33 176.063C143.33 176.063 141.694 172.504 140.989 170.678C137.544 161.766 132.923 153.208 129.802 144.221C116.052 104.622 94.9767 63.4814 66.3251 32.5376C53.5026 18.6894 41.7594 6.00774 23.6602 0.577999C16.5155 -1.56542 -5.51512 3.17076 1.28719 0.109727" sodipodi:nodetypes="cccccccccc"/>
  <path id="shape10" transform="translate(0, 264.222958038701)" fill="#9ba54d" fill-rule="evenodd" d="M0 0C13.8805 6.24623 27.206 32.1841 38.5024 43.1982C70.6372 74.5296 108.224 100.095 141.522 130.063C146.126 134.206 159.854 152.891 165.717 152.891C166.616 152.891 164.516 151.552 163.895 150.901C151.039 137.401 137.479 124.607 124.613 111.098C97.3083 82.4283 72.3543 49.2918 40.0633 26.4574C31.2725 20.241 22.0339 11.6713 12.2271 7.25823C9.39256 5.98267 -2.26447 0.854079 1.30076 2.45843" sodipodi:nodetypes="ccccccccc"/>
  <path id="shape11" transform="translate(34.8603124867678, 336.219909387306)" fill="#bfc38a" fill-rule="evenodd" d="M0 0C0 0.634558 2.16096 1.14333 2.60152 1.63895C21.6913 23.1149 60.5426 41.9114 85.0696 57.3634C92.5869 62.0994 100.337 66.569 108.223 70.7092C111.955 72.6683 122.733 75.7696 118.889 77.4992C118.606 77.6265 117.861 76.9604 117.589 76.7967C92.5093 61.7492 75.1607 37.3634 50.7296 21.6576C39.2689 14.2901 28.7797 6.17549 15.6091 2.2243C10.593 0.719459 -0.367205 1.45299 1.82106 0.468273" sodipodi:nodetypes="ccccccccc"/>
  <path id="shape12" transform="translate(86.6304780454757, 155.692487070981)" fill="#b8b245" fill-rule="evenodd" d="M0 2.58374C0 14.5579 12.9464 29.9986 15.3489 42.9723C23.4481 86.7076 33.4606 129.509 42.6649 170.928C48.6191 197.722 59.0544 230.094 59.0544 257.441C59.0544 258.783 61.1363 267.041 62.6965 266.338C63.9797 265.761 62.6965 256.606 62.6965 255.217C62.6965 197.914 46.4502 126.542 29.6573 73.6441C25.1537 59.4579 15.3489 38.3034 15.3489 23.7731C15.3489 19.9425 12.0069 9.87788 9.36546 7.5006C7.531 5.84959 7.02409 -1.9915 7.02409 0.47651" sodipodi:nodetypes="cccccccccc"/>
  <path id="shape13" transform="translate(120.450184189355, 115.369705278308)" fill="#b8b245" fill-rule="evenodd" stroke="none" stroke-width="1" stroke-linecap="square" stroke-linejoin="bevel" d="M0 4.50815C0 71.2042 1.2375 138.238 14.3083 202.939C19.7498 229.874 24.335 257.222 31.2182 284.067C32.6236 289.548 35.6408 300.457 35.6408 300.457C35.6408 300.457 35.3748 295.287 34.6002 292.847C28.0635 272.257 26.4424 247.005 24.4542 225.533C21.9487 198.473 17.5623 97.1146 9.88576 76.388C4.73857 62.4906 6.24364 37.1986 6.24364 22.3025C6.24364 15.8244 2.08121 -1.13012 2.08121 0.0595533" sodipodi:nodetypes="ccccccccc"/>
  <path id="shape14" transform="translate(232.299182192782, 81.341127709004)" fill="#000000" fill-rule="evenodd" d="M17.7065 0.840758C-1.47214 -3.9539 -7.42302 24.5122 11.723 28.8201C27.817 32.4412 33.1748 6.63084 19.0072 0.255417C18.1896 -0.112525 18.2268 -0.181634 18.2268 0.72369" sodipodi:nodetypes="cccc"/>
  <path id="shape15" transform="translate(281.524678995961, 67.5217446094024)" fill="#000000" fill-rule="evenodd" d="M14.2677 0.846092C-3.20555 -5.05112 -4.77605 26.5542 10.3654 28.8254C22.4373 30.6362 31.0827 12.9145 23.373 4.24107C22.1731 2.89123 14.1247 -1.45416 15.5684 0.494887" sodipodi:nodetypes="cccc"/>
  <path id="shape16" transform="translate(253.978260502736, 16.7957585491288)" fill="#f2f2f2" fill-rule="evenodd" stroke="#8c8c8c" stroke-width="1" stroke-linecap="square" stroke-linejoin="bevel" d="M31.6682 55.2012C20.0817 49.9873 -15.8328 7.44435 7.99439 0.296201C20.5735 -3.47753 27.7659 29.9102 27.7659 37.758C27.7659 43.2022 31.408 59.1235 31.408 53.6793" sodipodi:nodetypes="cccc"/>
  <path id="shape17" transform="translate(302.036482263246, 25.0593681578986)" fill="#f2f2f2" fill-rule="evenodd" stroke="#8c8c8c" stroke-width="1" stroke-linecap="square" stroke-linejoin="bevel" d="M0.519812 47.8741C-1.27648 48.1436 8.24061 33.7502 9.88527 31.9529C15.0089 26.3535 35.544 -9.82447 47.3471 2.56873C61.9855 17.939 31.616 39.3693 19.2507 43.5426C13.2876 45.5552 -4.99331 49.396 1.30027 49.396" sodipodi:nodetypes="ccccc"/>
  <path id="shape18" transform="translate(209.344015599484, 57.0933861536529)" fill="#f2f2f2" fill-rule="evenodd" stroke="#8c8c8c" stroke-width="1" stroke-linecap="square" stroke-linejoin="bevel" d="M1.89907 7.29413C-7.59755 9.43087 21.2147 38.5513 28.9548 38.5513C32.2864 38.5513 26.6135 32.1663 26.6135 28.8347C26.6135 22.6597 14.5607 -7.84753 3.72013 1.90899C2.79349 2.74297 -0.574636 5.30397 1.37877 5.30397" sodipodi:nodetypes="ccccc"/>
  <path id="shape19" transform="translate(249.812357223275, 49.6215823323193)" fill="#f2f2f2" fill-rule="evenodd" stroke="#8c8c8c" stroke-width="1" stroke-linecap="square" stroke-linejoin="bevel" d="M0.193317 37.7113C-0.0513644 37.9315 -0.0771901 27.5776 0.193317 26.2386C1.60624 19.2446 6.0001 -3.12047 17.6235 0.366545C32.6211 4.86582 11.9442 27.2393 7.99786 31.975C5.91485 34.4746 2.27453 39.1663 2.27453 37.7113" sodipodi:nodetypes="ccccc"/>
  <path id="shape20" transform="matrix(0.999127361140307 0.0417674062016643 -0.0417674062016643 0.999127361140307 37.6780368563115 383.150272098346)" fill="#787c6d" fill-rule="evenodd" d="M16.0116 37.6993C13.0544 39.0301 21.3109 33.8324 24.3365 32.6654C31.2164 30.0117 37.6438 26.42 44.6283 24.0023C66.4442 16.4507 87.7366 10.8811 110.447 6.79331C162.065 -2.498 286.298 -8.0848 328.974 30.324C341.701 41.7784 281.587 54.0467 279.285 54.323C277.367 54.5531 275.488 54.8254 273.562 55.0254C271.649 55.224 269.735 55.5305 267.838 55.8449C264.374 56.4192 260.905 56.8459 257.432 57.3668C203.443 65.4652 54.1312 74.1694 4.04466 51.6304C-6.35998 46.9484 5.93719 39.8915 11.5891 37.3481" sodipodi:nodetypes="ccccccccccc"/>
 </g>
</svg>
