<svg xmlns="http://www.w3.org/2000/svg" 
    xmlns:sodipodi="http://sodipodi.sourceforge.net/DTD/sodipodi-0.dtd"
    viewBox="0 0 284.88 177.36">
<defs/>
<g id="group0" fill="none">
  <ellipse id="shape0" transform="translate(59.0321084361157, 54.1788406235361)" rx="87.8217852921732" ry="60.9999999999951" cx="87.8217852921732" cy="60.9999999999951" fill="#d9d9d9" fill-rule="evenodd" stroke="#000000" stroke-width="1.99999999999984" stroke-linecap="square" stroke-linejoin="bevel"/>
  <path id="frog-color" transform="translate(-2.25616901161629e-07, 2.4370131133922)" fill="#6fbe7d" fill-rule="evenodd" stroke="#000000" stroke-width="1.99999999999984" stroke-linecap="square" stroke-linejoin="bevel" d="M55.1736 39.9481C29.2946 62.2609 2.56131 103.907 0.0864848 128.88C-3.0745 179.949 81.3118 176.5 105.97 167.424C116.263 151.19 87.2594 134.641 71.3417 132.209C80.9172 120.587 109.649 97.802 108.697 63.497C117.287 68.4272 157.634 75.7472 186.816 63.8038C193.776 96.83 219.155 124.09 228.262 128.59C178.799 139.605 177.51 154.896 176.046 165.768C179.12 180.373 286.223 179.354 282.127 132.387C282.127 107.596 263.777 70.6696 239.194 43.8121C240.653 28.7178 236.828 20.6623 229.814 15.2778C222.801 9.89325 210.887 8.89696 197.977 13.6133C182.494 4.26291 164.366 0.217679 145.136 0C118.977 0.186885 107.502 3.38372 93.4836 11.176C80.6014 6.12851 70.8698 6.54464 64.2888 12.4243C56.1097 18.3429 52.7621 29.6358 55.1736 39.9481Z" sodipodi:nodetypes="cccccccccccccccc"/>
  <circle id="shape2" transform="translate(65.1684421127027, 18.8107396967526)" r="14.2670969293814" cx="14.2670969293814" cy="14.2670969293814" fill="#000000" fill-rule="evenodd" stroke-opacity="0" stroke="#000000" stroke-width="0" stroke-linecap="square" stroke-linejoin="bevel"/>
  <ellipse id="shape3" transform="translate(80.032108436114, 25.0561403146096)" rx="4.49999999999964" ry="4.49999999999963" cx="4.49999999999964" cy="4.49999999999963" fill="#ffffff" fill-rule="evenodd" stroke="#ffffff" stroke-width="2.99999999999976" stroke-linecap="square" stroke-linejoin="bevel"/>
  <circle id="shape01" transform="translate(201.219864623219, 22.5844113995951)" r="14.2670969293814" cx="14.2670969293814" cy="14.2670969293814" fill="#000000" fill-rule="evenodd" stroke-opacity="0" stroke="#000000" stroke-width="0" stroke-linecap="square" stroke-linejoin="bevel"/>
  <ellipse id="shape11" transform="translate(216.083530946631, 28.8298120174521)" rx="4.49999999999964" ry="4.49999999999963" cx="4.49999999999964" cy="4.49999999999963" fill="#ffffff" fill-rule="evenodd" stroke="#ffffff" stroke-width="2.99999999999976" stroke-linecap="square" stroke-linejoin="bevel"/>
  <ellipse id="shape4" transform="translate(152.874028765713, 40.9736292215255)" rx="4.49999999999963" ry="4.49999999999966" cx="4.49999999999963" cy="4.49999999999966" fill="#000000" fill-rule="evenodd" stroke-opacity="0" stroke="#000000" stroke-width="0" stroke-linecap="square" stroke-linejoin="bevel"/>
  <ellipse id="shape01" transform="matrix(0.999999970776149 0 0 0.999999970776149 134.032100954804 41.1788312426808)" rx="4.49999999999963" ry="4.49999999999966" cx="4.49999999999963" cy="4.49999999999966" fill="#000000" fill-rule="evenodd" stroke-opacity="0" stroke="#000000" stroke-width="0" stroke-linecap="square" stroke-linejoin="bevel"/>
  <path id="shape5" transform="matrix(0.842814363727639 0.538204374094441 -0.538204374094441 0.842814363727639 157.277613885868 21.0931557741694)" fill="#8c8c8c" fill-opacity="0.509803921568627" fill-rule="evenodd" stroke-opacity="0.352941176470588" stroke="#000000" stroke-width="1" stroke-linecap="square" stroke-linejoin="bevel" d="M17.119 5.98848C17.119 3.34199 12.8335 2.22045e-16 8.24857 0C3.66362 -2.22045e-16 5.61475e-16 2.99908 0 5.64556C-5.61475e-16 8.29205 3.89855 8.57162 8.55385 8.38043C13.5109 8.17684 17.119 8.63496 17.119 5.98848Z" sodipodi:nodetypes="cccsc"/>
  <path id="shape6" transform="matrix(0.95381079353884 -0.300408006099737 0.300408006099737 0.95381079353884 111.595767389144 18.6712840194168)" fill="#8c8c8c" fill-opacity="0.509803921568627" fill-rule="evenodd" stroke-opacity="0.352941176470588" stroke="#000000" stroke-width="1" stroke-linecap="square" stroke-linejoin="bevel" d="M36.0207 6.45953C30.2363 2.02152 27.761 2.22045e-16 17.8199 0C7.87877 -2.22045e-16 2.29005 3.05264 0 7.23269C1.96651 11.3338 8.24149 14.4828 18.1826 14.4828C28.1237 14.4828 32.1747 11.9153 36.0207 6.45953Z" sodipodi:nodetypes="cscsc"/>
  <path id="shape02" transform="matrix(0.94671106512345 0.322084069150525 -0.322084069150525 0.94671106512345 148.247217328448 -6.57221335131908e-08)" fill="#8c8c8c" fill-opacity="0.509803921568627" fill-rule="evenodd" stroke-opacity="0.352941176470588" stroke="#000000" stroke-width="1" stroke-linecap="square" stroke-linejoin="bevel" d="M29.9969 4.7688C25.5064 1.30753 23.553 -0.58497 16.1785 0.161545C6.25648 1.16593 6.81141 2.57285 0 5.73843C3.42464 7.77261 4.89886 8.89278 14.1951 8.89278C23.4913 8.89278 23.8817 7.0505 29.9969 4.7688Z" sodipodi:nodetypes="cscsc"/>
  <ellipse id="shape7" transform="matrix(0.761605835344014 0.648040547782275 -0.648040547782275 0.761605835344014 42.6507928237334 65.2087038077083)" rx="3.49999999999972" ry="7.4999999999994" cx="3.49999999999972" cy="7.4999999999994" fill="#8c8c8c" fill-opacity="0.509803921568627" fill-rule="evenodd" stroke-opacity="0.352941176470588" stroke="#000000" stroke-width="1" stroke-linecap="square" stroke-linejoin="bevel"/>
  <path id="shape8" transform="translate(53.2676294163741, 49.4047987233131)" fill="#8c8c8c" fill-opacity="0.509803921568627" fill-rule="evenodd" stroke-opacity="0.352941176470588" stroke="#000000" stroke-width="1" stroke-linecap="square" stroke-linejoin="bevel" d="M24.832 12.3889C25.2223 6.70294 19.8372 7.05352 13.8539 4.6603C6.49132 -1.73517 2.73028 -0.609273 0.338656 2.46469C-0.936876 6.99212 1.2837 13.1793 8.82837 16.7362C15.202 17.6364 24.832 17.4381 24.832 12.3889Z" sodipodi:nodetypes="ccccc"/>
  <ellipse id="shape9" transform="matrix(0.446707632676146 0.894679993578093 -0.894679993578093 0.446707632676146 64.4526800221214 69.141067743845)" rx="4.9999999999996" ry="8.99999999999926" cx="4.9999999999996" cy="8.99999999999926" fill="#8c8c8c" fill-opacity="0.509803921568627" fill-rule="evenodd" stroke-opacity="0.352941176470588" stroke="#000000" stroke-width="1" stroke-linecap="square" stroke-linejoin="bevel"/>
  <ellipse id="shape10" transform="matrix(0.288627127974146 0.957441580984137 -0.957441580984137 0.288627127974146 43.8258119754575 83.969839064764)" rx="2.4999999999998" ry="3.99999999999969" cx="2.4999999999998" cy="3.99999999999969" fill="#8c8c8c" fill-opacity="0.509803921568627" fill-rule="evenodd" stroke-opacity="0.352941176470588" stroke="#000000" stroke-width="1" stroke-linecap="square" stroke-linejoin="bevel"/>
  <path id="shape03" transform="matrix(0.953810788019952 -0.300408004361532 0.300408004361532 0.953810788019952 205.774437443544 64.6810058406742)" fill="#8c8c8c" fill-opacity="0.509803921568627" fill-rule="evenodd" stroke-opacity="0.352941176470588" stroke="#000000" stroke-width="1" stroke-linecap="square" stroke-linejoin="bevel" d="M17.831 8.44546C14.8199 2.59747 10.5328 2.22045e-16 5.35792 0C0.183035 -2.22045e-16 -0.48125 7.43337 0.244354 12.3531C1.26803 17.7572 8.19376 21.9667 13.3686 21.9667C18.5435 21.9667 18.0562 14.3871 17.831 8.44546Z" sodipodi:nodetypes="cscsc"/>
  <path id="shape04" transform="matrix(0.953810787361109 -0.300408004154026 0.300408004154026 0.953810787361109 222.456558403889 54.5001351743373)" fill="#8c8c8c" fill-opacity="0.509803921568627" fill-rule="evenodd" stroke-opacity="0.352941176470588" stroke="#000000" stroke-width="1" stroke-linecap="square" stroke-linejoin="bevel" d="M16.337 2.79491C13.3259 -3.05308 13.6452 1.88644 8.31443 3.19016C3.28769 4.41953 -0.638961 0.709575 0.0866431 5.6293C1.11032 11.0334 6.68896 12.4324 11.7423 11.3174C16.5139 10.2645 15.8661 8.19632 16.337 2.79491Z" sodipodi:nodetypes="cscsc"/>
  <path id="shape05" transform="matrix(0.953810771415892 -0.300407999131991 0.300407999131991 0.953810771415892 234.271599704337 72.3265079399591)" fill="#8c8c8c" fill-opacity="0.509803921568627" fill-rule="evenodd" stroke-opacity="0.352941176470588" stroke="#000000" stroke-width="1" stroke-linecap="square" stroke-linejoin="bevel" d="M9.39166 3.97294C4.48949 0.319261 8.35754 -0.77539 3.02679 0.52833C-1.99995 1.7577 2.36962 2.85244 0 5.85234C2.43661 10.104 2.4608 11.2946 7.63564 11.2946C12.8105 11.2946 8.92086 9.37435 9.39166 3.97294Z" sodipodi:nodetypes="cscsc"/>
  <ellipse id="shape06" transform="matrix(-0.675354779108301 0.737493036807222 -0.737493036807222 -0.675354779108301 250.904439537516 66.3041084535622)" rx="2.4999999999998" ry="3.99999999999969" cx="2.4999999999998" cy="3.99999999999969" fill="#8c8c8c" fill-opacity="0.509803921568627" fill-rule="evenodd" stroke-opacity="0.352941176470588" stroke="#000000" stroke-width="1" stroke-linecap="square" stroke-linejoin="bevel"/>
 </g>
</svg>