<?xml version="1.0" standalone="no"?>
<!DOCTYPE svg PUBLIC "-//W3C//DTD SVG 20010904//EN" "http://www.w3.org/TR/2001/REC-SVG-20010904/DTD/svg10.dtd">
<!-- Created using Krita: https://krita.org -->
<svg xmlns="http://www.w3.org/2000/svg" 
    xmlns:xlink="http://www.w3.org/1999/xlink"
    xmlns:krita="http://krita.org/namespaces/svg/krita"
    xmlns:sodipodi="http://sodipodi.sourceforge.net/DTD/sodipodi-0.dtd"
    width="275.04pt"
    height="239.52pt"
    viewBox="0 0 275.04 239.52">
<defs/>
<g id="group0" transform="matrix(0.999999967336239 0 0 0.999999967336239 1.90010521601481 -0.463947068245496)" fill="none">
  <path id="shape0" transform="matrix(0.999999963987961 0 0 0.999999963987961 42.430822569259 48.879407211855)" fill="#d9d9d9" fill-rule="evenodd" stroke="#000000" stroke-width="1.99999999999984" stroke-linecap="square" stroke-linejoin="bevel" d="M197.244 134.235C197.244 100.546 147.322 0 98.8196 0C50.317 0 5.32907e-15 108.895 0 142.584C-5.32907e-15 176.274 49.6603 188.775 98.1617 189.126C147.322 189.481 197.244 167.925 197.244 134.235Z" sodipodi:nodetypes="cccsc"/>
  <path id="shape1" transform="matrix(0.999999963987961 0 0 0.999999963987961 -6.75616490752873e-07 2.43701309135224)" fill="#6fbe7d" fill-rule="evenodd" stroke="#000000" stroke-width="1.99999999999984" stroke-linecap="square" stroke-linejoin="bevel" d="M48.2884 37.4202C18.6608 60.9981 0.973472 105.117 0.192359 129.518C-2.96863 180.587 33.5278 238.503 58.186 229.427C68.5268 213.225 66.5621 197.604 59.4062 172.624C79.964 149.431 119.744 115.113 106.996 62.6794C115.586 67.6096 148.046 74.1347 177.228 62.1913C161.459 105.384 206.049 166.325 219.666 171.709C205.862 198.343 205.402 210.623 209.769 221.739C225.994 237.031 275.013 180.981 270.917 134.125C270.917 109.334 258.937 70.6696 234.354 43.8121C235.813 28.7178 231.988 20.6623 224.974 15.2778C217.961 9.89325 206.047 8.89696 193.137 13.6133C177.654 4.26291 159.526 0.217679 140.296 0C114.137 0.186885 102.662 3.38372 88.6434 11.176C75.7612 6.12851 66.0296 6.54464 59.4486 12.4243C51.2695 18.3429 45.8769 27.1079 48.2884 37.4202Z" sodipodi:nodetypes="cccccccccccccccc"/>
  <path id="shape2" transform="matrix(0.999999963987961 0 0 0.999999963987961 60.3282301821996 18.8107390850619)" fill="#000000" fill-rule="evenodd" stroke-opacity="0" stroke="#000000" stroke-width="0" stroke-linecap="square" stroke-linejoin="bevel" d="M28.5342 14.2671C28.5342 6.3876 22.1466 4.82464e-16 14.2671 0C6.3876 -4.82464e-16 9.64929e-16 6.3876 0 14.2671C-9.64929e-16 22.1466 5.78406 19.6867 13.6636 19.6867C21.5431 19.6867 28.5342 22.1466 28.5342 14.2671Z" sodipodi:nodetypes="ccccc"/>
  <ellipse id="shape3" transform="matrix(0.999999963987961 0 0 0.999999963987961 75.1918959703407 25.0561394780094)" rx="4.49999999999964" ry="4.49999999999963" cx="4.49999999999964" cy="4.49999999999963" fill="#ffffff" fill-rule="evenodd" stroke="#ffffff" stroke-width="2.99999999999976" stroke-linecap="square" stroke-linejoin="bevel"/>
  <path id="shape01" transform="matrix(0.999999963987961 0 0 0.999999963987961 196.379647793228 22.5844106520063)" fill="#000000" fill-rule="evenodd" stroke-opacity="0" stroke="#000000" stroke-width="0" stroke-linecap="square" stroke-linejoin="bevel" d="M28.5342 14.2671C28.5342 6.3876 22.1466 4.82464e-16 14.2671 0C6.3876 -4.82464e-16 9.64929e-16 6.3876 0 14.2671C-9.64929e-16 22.1466 6.14301 20.1005 14.0225 20.1005C21.902 20.1005 28.5342 22.1466 28.5342 14.2671Z" sodipodi:nodetypes="ccccc"/>
  <ellipse id="shape11" transform="matrix(0.999999963987961 0 0 0.999999963987961 211.243313581369 28.8298110449539)" rx="4.49999999999964" ry="4.49999999999963" cx="4.49999999999964" cy="4.49999999999963" fill="#ffffff" fill-rule="evenodd" stroke="#ffffff" stroke-width="2.99999999999976" stroke-linecap="square" stroke-linejoin="bevel"/>
  <ellipse id="shape4" transform="matrix(0.999999963987961 0 0 0.999999963987961 148.033813676754 40.9736278117041)" rx="4.49999999999963" ry="4.49999999999966" cx="4.49999999999963" cy="4.49999999999966" fill="#000000" fill-rule="evenodd" stroke-opacity="0" stroke="#000000" stroke-width="0" stroke-linecap="square" stroke-linejoin="bevel"/>
  <ellipse id="shape011" transform="matrix(0.999999934764111 0 0 0.999999934764111 129.191886544381 41.1788298254694)" rx="4.49999999999963" ry="4.49999999999966" cx="4.49999999999963" cy="4.49999999999966" fill="#000000" fill-rule="evenodd" stroke-opacity="0" stroke="#000000" stroke-width="0" stroke-linecap="square" stroke-linejoin="bevel"/>
  <path id="shape5" transform="matrix(0.842814333376175 0.538204354712604 -0.538204354712604 0.842814333376175 152.437398638326 21.0931550802835)" fill="#8c8c8c" fill-opacity="0.509803921568627" fill-rule="evenodd" stroke-opacity="0.352941176470588" stroke="#000000" stroke-width="1" stroke-linecap="square" stroke-linejoin="bevel" d="M17.119 5.98848C17.119 3.34199 12.8335 2.22045e-16 8.24857 0C3.66362 -2.22045e-16 5.61475e-16 2.99908 0 5.64556C-5.61475e-16 8.29205 3.89855 8.57162 8.55385 8.38043C13.5109 8.17684 17.119 8.63496 17.119 5.98848Z" sodipodi:nodetypes="cccsc"/>
  <path id="shape6" transform="matrix(0.953810759190169 -0.300407995281432 0.300407995281432 0.953810759190169 106.755553786699 18.6712834127484)" fill="#8c8c8c" fill-opacity="0.509803921568627" fill-rule="evenodd" stroke-opacity="0.352941176470588" stroke="#000000" stroke-width="1" stroke-linecap="square" stroke-linejoin="bevel" d="M36.0207 6.45953C30.2363 2.02152 27.761 2.22045e-16 17.8199 0C7.87877 -2.22045e-16 2.29005 3.05264 0 7.23269C1.96651 11.3338 8.24149 14.4828 18.1826 14.4828C28.1237 14.4828 32.1747 11.9153 36.0207 6.45953Z" sodipodi:nodetypes="cscsc"/>
  <path id="shape02" transform="matrix(0.946711031030454 0.322084057551621 -0.322084057551621 0.946711031030454 143.407002428469 -6.57221903566096e-08)" fill="#8c8c8c" fill-opacity="0.509803921568627" fill-rule="evenodd" stroke-opacity="0.352941176470588" stroke="#000000" stroke-width="1" stroke-linecap="square" stroke-linejoin="bevel" d="M29.9969 4.7688C25.5064 1.30753 23.553 -0.58497 16.1785 0.161545C6.25648 1.16593 6.81141 2.57285 0 5.73843C3.42464 7.77261 4.89886 8.89278 14.1951 8.89278C23.4913 8.89278 23.8817 7.0505 29.9969 4.7688Z" sodipodi:nodetypes="cscsc"/>
  <ellipse id="shape7" transform="matrix(0.761605807917035 0.648040524445014 -0.648040524445014 0.761605807917035 37.8105817041371 65.2087015251317)" rx="3.49999999999972" ry="7.4999999999994" cx="3.49999999999972" cy="7.4999999999994" fill="#8c8c8c" fill-opacity="0.509803921568627" fill-rule="evenodd" stroke-opacity="0.352941176470588" stroke="#000000" stroke-width="1" stroke-linecap="square" stroke-linejoin="bevel"/>
  <path id="shape8" transform="matrix(0.999999963987961 0 0 0.999999963987961 48.4274181148024 49.4047971162126)" fill="#8c8c8c" fill-opacity="0.509803921568627" fill-rule="evenodd" stroke-opacity="0.352941176470588" stroke="#000000" stroke-width="1" stroke-linecap="square" stroke-linejoin="bevel" d="M24.832 12.3889C25.2223 6.70294 19.8372 7.05352 13.8539 4.6603C6.49132 -1.73517 2.73028 -0.609273 0.338656 2.46469C-0.936876 6.99212 1.2837 13.1793 8.82837 16.7362C15.202 17.6364 24.832 17.4381 24.832 12.3889Z" sodipodi:nodetypes="ccccc"/>
  <ellipse id="shape9" transform="matrix(0.446707616589293 0.894679961358842 -0.894679961358842 0.446707616589293 59.6124681173945 69.1410653196561)" rx="4.9999999999996" ry="8.99999999999926" cx="4.9999999999996" cy="8.99999999999926" fill="#8c8c8c" fill-opacity="0.509803921568627" fill-rule="evenodd" stroke-opacity="0.352941176470588" stroke="#000000" stroke-width="1" stroke-linecap="square" stroke-linejoin="bevel"/>
  <ellipse id="shape10" transform="matrix(0.288627117580095 0.957441546504713 -0.957441546504713 0.288627117580095 38.9856008135463 83.9698361065609)" rx="2.4999999999998" ry="3.99999999999969" cx="2.4999999999998" cy="3.99999999999969" fill="#8c8c8c" fill-opacity="0.509803921568627" fill-rule="evenodd" stroke-opacity="0.352941176470588" stroke="#000000" stroke-width="1" stroke-linecap="square" stroke-linejoin="bevel"/>
  <path id="shape03" transform="matrix(0.953810753671281 -0.300407993543227 0.300407993543227 0.953810753671281 200.934220592385 64.6810035321089)" fill="#8c8c8c" fill-opacity="0.509803921568627" fill-rule="evenodd" stroke-opacity="0.352941176470588" stroke="#000000" stroke-width="1" stroke-linecap="square" stroke-linejoin="bevel" d="M17.831 8.44546C14.8199 2.59747 10.5328 2.22045e-16 5.35792 0C0.183035 -2.22045e-16 -0.48125 7.43337 0.244354 12.3531C1.26803 17.7572 8.19376 21.9667 13.3686 21.9667C18.5435 21.9667 18.0562 14.3871 17.831 8.44546Z" sodipodi:nodetypes="cscsc"/>
  <path id="shape04" transform="matrix(0.95381075301244 -0.300407993335722 0.300407993335722 0.95381075301244 217.616340840333 54.5001334143106)" fill="#8c8c8c" fill-opacity="0.509803921568627" fill-rule="evenodd" stroke-opacity="0.352941176470588" stroke="#000000" stroke-width="1" stroke-linecap="square" stroke-linejoin="bevel" d="M16.337 2.79491C13.3259 -3.05308 13.6452 1.88644 8.31443 3.19016C3.28769 4.41953 -0.638961 0.709575 0.0866431 5.6293C1.11032 11.0334 6.68896 12.4324 11.7423 11.3174C16.5139 10.2645 15.8661 8.19632 16.337 2.79491Z" sodipodi:nodetypes="cscsc"/>
  <path id="shape05" transform="matrix(0.953810737067221 -0.300407988313686 0.300407988313686 0.953810737067221 229.431381616272 72.3265051857473)" fill="#8c8c8c" fill-opacity="0.509803921568627" fill-rule="evenodd" stroke-opacity="0.352941176470588" stroke="#000000" stroke-width="1" stroke-linecap="square" stroke-linejoin="bevel" d="M9.39166 3.97294C4.48949 0.319261 8.35754 -0.77539 3.02679 0.52833C-1.99995 1.7577 2.36962 2.85244 0 5.85234C2.43661 10.104 2.4608 11.2946 7.63564 11.2946C12.8105 11.2946 8.92086 9.37435 9.39166 3.97294Z" sodipodi:nodetypes="cscsc"/>
  <ellipse id="shape06" transform="matrix(-0.675354754787398 0.737493010248594 -0.737493010248594 -0.675354754787398 246.06422091828 66.3041061315378)" rx="2.4999999999998" ry="3.99999999999969" cx="2.4999999999998" cy="3.99999999999969" fill="#8c8c8c" fill-opacity="0.509803921568627" fill-rule="evenodd" stroke-opacity="0.352941176470588" stroke="#000000" stroke-width="1" stroke-linecap="square" stroke-linejoin="bevel"/>
 </g>
</svg>
